<svg xmlns="http://www.w3.org/2000/svg" xmlns:xlink="http://www.w3.org/1999/xlink" width="1080" zoomAndPan="magnify" viewBox="0 0 810 809.999993" height="1080" preserveAspectRatio="xMidYMid meet" version="1.0"><path fill="#000000" d="M 405 0 C 398.371094 0 391.746094 0.164062 385.128906 0.488281 C 378.507812 0.8125 371.898438 1.300781 365.304688 1.949219 C 358.707031 2.601562 352.128906 3.410156 345.574219 4.382812 C 339.019531 5.355469 332.488281 6.488281 325.988281 7.78125 C 319.488281 9.074219 313.023438 10.527344 306.59375 12.136719 C 300.164062 13.746094 293.777344 15.515625 287.433594 17.4375 C 281.09375 19.363281 274.800781 21.441406 268.558594 23.675781 C 262.320312 25.90625 256.136719 28.292969 250.011719 30.828125 C 243.890625 33.367188 237.832031 36.050781 231.839844 38.882812 C 225.847656 41.71875 219.929688 44.699219 214.085938 47.820312 C 208.238281 50.945312 202.472656 54.210938 196.789062 57.621094 C 191.101562 61.027344 185.503906 64.574219 179.992188 68.253906 C 174.484375 71.9375 169.066406 75.753906 163.742188 79.699219 C 158.417969 83.648438 153.195312 87.726562 148.070312 91.929688 C 142.945312 96.136719 137.929688 100.464844 133.019531 104.914062 C 128.109375 109.367188 123.308594 113.933594 118.621094 118.621094 C 113.933594 123.308594 109.367188 128.109375 104.914062 133.019531 C 100.464844 137.929688 96.136719 142.945312 91.929688 148.070312 C 87.726562 153.195312 83.648438 158.417969 79.699219 163.742188 C 75.753906 169.066406 71.9375 174.484375 68.253906 179.992188 C 64.574219 185.503906 61.027344 191.101562 57.621094 196.789062 C 54.210938 202.472656 50.945312 208.238281 47.820312 214.085938 C 44.699219 219.929688 41.71875 225.847656 38.882812 231.839844 C 36.050781 237.832031 33.367188 243.890625 30.828125 250.011719 C 28.292969 256.136719 25.90625 262.320312 23.675781 268.558594 C 21.441406 274.800781 19.363281 281.09375 17.4375 287.433594 C 15.515625 293.777344 13.746094 300.164062 12.136719 306.59375 C 10.527344 313.023438 9.074219 319.488281 7.78125 325.988281 C 6.488281 332.488281 5.355469 339.019531 4.382812 345.574219 C 3.410156 352.128906 2.601562 358.707031 1.949219 365.304688 C 1.300781 371.898438 0.8125 378.507812 0.488281 385.128906 C 0.164062 391.746094 0 398.371094 0 405 C 0 411.628906 0.164062 418.253906 0.488281 424.871094 C 0.8125 431.492188 1.300781 438.101562 1.949219 444.695312 C 2.601562 451.292969 3.410156 457.871094 4.382812 464.425781 C 5.355469 470.980469 6.488281 477.511719 7.78125 484.011719 C 9.074219 490.511719 10.527344 496.976562 12.136719 503.40625 C 13.746094 509.835938 15.515625 516.222656 17.4375 522.566406 C 19.363281 528.90625 21.441406 535.199219 23.675781 541.441406 C 25.90625 547.679688 28.292969 553.863281 30.828125 559.988281 C 33.367188 566.109375 36.050781 572.167969 38.882812 578.160156 C 41.71875 584.152344 44.699219 590.070312 47.820312 595.914062 C 50.945312 601.761719 54.210938 607.527344 57.621094 613.210938 C 61.027344 618.898438 64.574219 624.496094 68.253906 630.007812 C 71.9375 635.515625 75.753906 640.933594 79.699219 646.257812 C 83.648438 651.582031 87.726562 656.804688 91.929688 661.929688 C 96.136719 667.054688 100.464844 672.070312 104.914062 676.980469 C 109.367188 681.890625 113.933594 686.691406 118.621094 691.378906 C 123.308594 696.066406 128.109375 700.632812 133.019531 705.085938 C 137.929688 709.535156 142.945312 713.863281 148.070312 718.070312 C 153.195312 722.273438 158.417969 726.351562 163.742188 730.300781 C 169.066406 734.246094 174.484375 738.0625 179.992188 741.746094 C 185.503906 745.425781 191.101562 748.972656 196.789062 752.378906 C 202.472656 755.789062 208.238281 759.054688 214.085938 762.179688 C 219.929688 765.300781 225.847656 768.28125 231.839844 771.117188 C 237.832031 773.949219 243.890625 776.632812 250.011719 779.171875 C 256.136719 781.707031 262.320312 784.09375 268.558594 786.324219 C 274.800781 788.558594 281.09375 790.636719 287.433594 792.5625 C 293.777344 794.484375 300.164062 796.253906 306.59375 797.863281 C 313.023438 799.472656 319.488281 800.925781 325.988281 802.21875 C 332.488281 803.511719 339.019531 804.644531 345.574219 805.617188 C 352.128906 806.589844 358.707031 807.398438 365.304688 808.050781 C 371.898438 808.699219 378.507812 809.1875 385.128906 809.511719 C 391.746094 809.835938 398.371094 810 405 810 C 411.628906 810 418.253906 809.835938 424.871094 809.511719 C 431.492188 809.1875 438.101562 808.699219 444.695312 808.050781 C 451.292969 807.398438 457.871094 806.589844 464.425781 805.617188 C 470.980469 804.644531 477.511719 803.511719 484.011719 802.21875 C 490.511719 800.925781 496.976562 799.472656 503.40625 797.863281 C 509.835938 796.253906 516.222656 794.484375 522.566406 792.5625 C 528.90625 790.636719 535.199219 788.558594 541.441406 786.324219 C 547.679688 784.09375 553.863281 781.707031 559.988281 779.171875 C 566.109375 776.632812 572.167969 773.949219 578.160156 771.117188 C 584.152344 768.28125 590.070312 765.300781 595.914062 762.179688 C 601.761719 759.054688 607.527344 755.789062 613.210938 752.378906 C 618.898438 748.972656 624.496094 745.425781 630.007812 741.746094 C 635.515625 738.0625 640.933594 734.246094 646.257812 730.300781 C 651.582031 726.351562 656.804688 722.273438 661.929688 718.070312 C 667.054688 713.863281 672.070312 709.535156 676.980469 705.085938 C 681.890625 700.632812 686.691406 696.066406 691.378906 691.378906 C 696.066406 686.691406 700.632812 681.890625 705.085938 676.980469 C 709.535156 672.070312 713.863281 667.054688 718.070312 661.929688 C 722.273438 656.804688 726.351562 651.582031 730.300781 646.257812 C 734.246094 640.933594 738.0625 635.515625 741.746094 630.007812 C 745.425781 624.496094 748.972656 618.898438 752.378906 613.210938 C 755.789062 607.527344 759.054688 601.761719 762.179688 595.914062 C 765.300781 590.070312 768.28125 584.152344 771.117188 578.160156 C 773.949219 572.167969 776.632812 566.109375 779.171875 559.988281 C 781.707031 553.863281 784.09375 547.679688 786.324219 541.441406 C 788.558594 535.199219 790.636719 528.90625 792.5625 522.566406 C 794.484375 516.222656 796.253906 509.835938 797.863281 503.40625 C 799.472656 496.976562 800.925781 490.511719 802.21875 484.011719 C 803.511719 477.511719 804.644531 470.980469 805.617188 464.425781 C 806.589844 457.871094 807.398438 451.292969 808.050781 444.695312 C 808.699219 438.101562 809.1875 431.492188 809.511719 424.871094 C 809.835938 418.253906 810 411.628906 810 405 C 810 398.371094 809.835938 391.75 809.511719 385.128906 C 809.183594 378.507812 808.695312 371.902344 808.046875 365.304688 C 807.394531 358.707031 806.582031 352.132812 805.609375 345.578125 C 804.636719 339.019531 803.503906 332.492188 802.210938 325.992188 C 800.914062 319.492188 799.464844 313.027344 797.851562 306.597656 C 796.242188 300.167969 794.472656 293.78125 792.550781 287.441406 C 790.625 281.097656 788.546875 274.808594 786.3125 268.566406 C 784.078125 262.324219 781.695312 256.144531 779.15625 250.019531 C 776.621094 243.898438 773.933594 237.839844 771.101562 231.847656 C 768.265625 225.859375 765.289062 219.941406 762.164062 214.09375 C 759.039062 208.25 755.773438 202.484375 752.363281 196.800781 C 748.957031 191.113281 745.410156 185.515625 741.730469 180.007812 C 738.046875 174.496094 734.230469 169.078125 730.285156 163.753906 C 726.335938 158.429688 722.257812 153.207031 718.054688 148.085938 C 713.847656 142.960938 709.519531 137.945312 705.070312 133.03125 C 700.617188 128.121094 696.050781 123.324219 691.363281 118.636719 C 686.675781 113.949219 681.878906 109.382812 676.96875 104.929688 C 672.054688 100.480469 667.039062 96.152344 661.914062 91.945312 C 656.792969 87.742188 651.570312 83.664062 646.246094 79.714844 C 640.921875 75.769531 635.503906 71.953125 629.992188 68.269531 C 624.484375 64.589844 618.886719 61.042969 613.199219 57.636719 C 607.515625 54.226562 601.75 50.960938 595.90625 47.835938 C 590.058594 44.710938 584.140625 41.734375 578.152344 38.898438 C 572.160156 36.066406 566.101562 33.378906 559.980469 30.84375 C 553.855469 28.304688 547.671875 25.921875 541.433594 23.6875 C 535.191406 21.453125 528.902344 19.375 522.558594 17.449219 C 516.21875 15.527344 509.832031 13.757812 503.402344 12.148438 C 496.972656 10.535156 490.507812 9.085938 484.007812 7.789062 C 477.507812 6.496094 470.980469 5.363281 464.421875 4.390625 C 457.867188 3.417969 451.292969 2.605469 444.695312 1.953125 C 438.097656 1.304688 431.492188 0.816406 424.871094 0.492188 C 418.25 0.164062 411.628906 0 405 0 Z M 656.984375 340.578125 C 656.632812 341.71875 656.191406 342.820312 655.664062 343.890625 C 655.132812 344.957031 654.523438 345.976562 653.828125 346.945312 C 653.136719 347.914062 652.371094 348.824219 651.53125 349.667969 C 650.691406 350.515625 649.792969 351.289062 648.828125 351.992188 C 647.867188 352.695312 646.855469 353.316406 645.792969 353.855469 C 644.730469 354.394531 643.628906 354.847656 642.496094 355.210938 C 641.359375 355.574219 640.203125 355.847656 639.027344 356.023438 C 637.847656 356.203125 636.660156 356.285156 635.46875 356.273438 L 612.941406 356.273438 L 612.941406 583.960938 C 612.941406 585.085938 612.910156 586.214844 612.855469 587.34375 C 612.796875 588.46875 612.714844 589.59375 612.601562 590.71875 C 612.492188 591.839844 612.351562 592.960938 612.183594 594.078125 C 612.019531 595.191406 611.824219 596.304688 611.605469 597.410156 C 611.382812 598.515625 611.132812 599.617188 610.859375 600.710938 C 610.585938 601.804688 610.28125 602.894531 609.953125 603.972656 C 609.625 605.054688 609.269531 606.125 608.890625 607.1875 C 608.507812 608.25 608.101562 609.300781 607.671875 610.34375 C 607.238281 611.386719 606.78125 612.417969 606.296875 613.4375 C 605.8125 614.457031 605.304688 615.464844 604.773438 616.457031 C 604.242188 617.453125 603.683594 618.433594 603.105469 619.402344 C 602.523438 620.371094 601.921875 621.324219 601.292969 622.261719 C 600.664062 623.199219 600.015625 624.121094 599.34375 625.027344 C 598.671875 625.933594 597.976562 626.824219 597.261719 627.695312 C 596.542969 628.566406 595.808594 629.421875 595.050781 630.257812 C 594.292969 631.09375 593.515625 631.910156 592.714844 632.710938 C 591.917969 633.507812 591.101562 634.285156 590.265625 635.042969 C 589.429688 635.800781 588.574219 636.539062 587.703125 637.253906 C 586.832031 637.96875 585.941406 638.664062 585.035156 639.335938 C 584.128906 640.007812 583.207031 640.660156 582.269531 641.285156 C 581.328125 641.914062 580.378906 642.519531 579.410156 643.097656 C 578.441406 643.679688 577.460938 644.234375 576.464844 644.769531 C 575.46875 645.300781 574.460938 645.808594 573.441406 646.289062 C 572.421875 646.773438 571.390625 647.230469 570.347656 647.664062 C 569.308594 648.097656 568.253906 648.503906 567.191406 648.882812 C 566.128906 649.265625 565.058594 649.621094 563.980469 649.949219 C 562.898438 650.277344 561.8125 650.578125 560.71875 650.851562 C 559.625 651.128906 558.523438 651.375 557.417969 651.597656 C 556.308594 651.820312 555.199219 652.011719 554.082031 652.179688 C 552.964844 652.34375 551.847656 652.484375 550.722656 652.597656 C 549.601562 652.707031 548.476562 652.792969 547.347656 652.847656 C 546.222656 652.90625 545.09375 652.933594 543.964844 652.9375 L 476 652.9375 C 475.125 652.929688 474.257812 652.835938 473.402344 652.660156 C 472.542969 652.484375 471.710938 652.222656 470.902344 651.882812 C 470.097656 651.542969 469.328125 651.128906 468.605469 650.636719 C 467.878906 650.148438 467.207031 649.589844 466.589844 648.96875 C 465.976562 648.34375 465.425781 647.667969 464.941406 646.9375 C 464.457031 646.207031 464.050781 645.4375 463.714844 644.628906 C 463.382812 643.816406 463.132812 642.984375 462.964844 642.125 C 462.796875 641.265625 462.710938 640.394531 462.710938 639.519531 L 462.710938 520.425781 C 462.710938 519.410156 462.660156 518.398438 462.558594 517.386719 C 462.457031 516.378906 462.308594 515.375 462.109375 514.378906 C 461.910156 513.382812 461.660156 512.402344 461.367188 511.429688 C 461.070312 510.457031 460.726562 509.503906 460.339844 508.566406 C 459.949219 507.628906 459.515625 506.714844 459.035156 505.816406 C 458.558594 504.921875 458.035156 504.054688 457.472656 503.210938 C 456.90625 502.367188 456.300781 501.550781 455.660156 500.765625 C 455.015625 499.984375 454.332031 499.230469 453.617188 498.515625 C 452.898438 497.796875 452.148438 497.113281 451.363281 496.472656 C 450.578125 495.828125 449.761719 495.222656 448.917969 494.660156 C 448.074219 494.09375 447.207031 493.574219 446.3125 493.09375 C 445.417969 492.613281 444.5 492.179688 443.5625 491.789062 C 442.625 491.402344 441.671875 491.058594 440.699219 490.765625 C 439.730469 490.46875 438.746094 490.21875 437.75 490.019531 C 436.753906 489.820312 435.753906 489.671875 434.742188 489.570312 C 433.730469 489.46875 432.71875 489.417969 431.703125 489.417969 L 378.296875 489.417969 C 377.28125 489.417969 376.269531 489.46875 375.257812 489.570312 C 374.246094 489.671875 373.246094 489.820312 372.25 490.019531 C 371.253906 490.21875 370.269531 490.46875 369.300781 490.761719 C 368.328125 491.058594 367.375 491.402344 366.4375 491.789062 C 365.5 492.179688 364.582031 492.613281 363.6875 493.09375 C 362.792969 493.574219 361.925781 494.09375 361.082031 494.660156 C 360.238281 495.222656 359.421875 495.828125 358.636719 496.472656 C 357.851562 497.113281 357.101562 497.796875 356.382812 498.515625 C 355.667969 499.230469 354.984375 499.984375 354.339844 500.765625 C 353.695312 501.550781 353.09375 502.367188 352.527344 503.210938 C 351.964844 504.054688 351.441406 504.921875 350.964844 505.816406 C 350.484375 506.714844 350.050781 507.628906 349.660156 508.566406 C 349.273438 509.503906 348.929688 510.457031 348.632812 511.429688 C 348.339844 512.402344 348.089844 513.382812 347.890625 514.378906 C 347.691406 515.375 347.542969 516.378906 347.441406 517.386719 C 347.339844 518.398438 347.289062 519.410156 347.289062 520.425781 L 347.289062 639.519531 C 347.289062 640.394531 347.203125 641.265625 347.035156 642.125 C 346.867188 642.984375 346.617188 643.816406 346.285156 644.628906 C 345.949219 645.4375 345.542969 646.207031 345.058594 646.9375 C 344.574219 647.667969 344.023438 648.34375 343.410156 648.96875 C 342.792969 649.589844 342.121094 650.148438 341.394531 650.636719 C 340.671875 651.128906 339.902344 651.542969 339.097656 651.882812 C 338.289062 652.222656 337.457031 652.484375 336.597656 652.660156 C 335.742188 652.835938 334.875 652.929688 334 652.9375 L 266.035156 652.9375 C 264.90625 652.933594 263.777344 652.90625 262.652344 652.847656 C 261.523438 652.792969 260.398438 652.707031 259.277344 652.597656 C 258.152344 652.484375 257.035156 652.34375 255.917969 652.179688 C 254.800781 652.011719 253.691406 651.820312 252.582031 651.597656 C 251.476562 651.375 250.375 651.128906 249.28125 650.851562 C 248.1875 650.578125 247.101562 650.277344 246.019531 649.949219 C 244.941406 649.621094 243.871094 649.265625 242.808594 648.882812 C 241.746094 648.503906 240.691406 648.097656 239.652344 647.664062 C 238.609375 647.230469 237.578125 646.773438 236.558594 646.289062 C 235.539062 645.808594 234.53125 645.300781 233.535156 644.769531 C 232.539062 644.234375 231.558594 643.679688 230.589844 643.097656 C 229.621094 642.519531 228.671875 641.914062 227.730469 641.285156 C 226.792969 640.660156 225.871094 640.007812 224.964844 639.335938 C 224.058594 638.664062 223.167969 637.96875 222.296875 637.253906 C 221.425781 636.539062 220.570312 635.800781 219.734375 635.042969 C 218.898438 634.285156 218.082031 633.507812 217.285156 632.710938 C 216.484375 631.910156 215.707031 631.09375 214.949219 630.257812 C 214.191406 629.421875 213.457031 628.570312 212.738281 627.695312 C 212.023438 626.824219 211.328125 625.933594 210.65625 625.027344 C 209.984375 624.121094 209.335938 623.199219 208.707031 622.261719 C 208.078125 621.324219 207.476562 620.371094 206.894531 619.402344 C 206.316406 618.433594 205.757812 617.453125 205.226562 616.457031 C 204.695312 615.464844 204.1875 614.457031 203.703125 613.4375 C 203.21875 612.417969 202.761719 611.386719 202.328125 610.34375 C 201.898438 609.300781 201.492188 608.25 201.109375 607.1875 C 200.730469 606.125 200.375 605.054688 200.046875 603.972656 C 199.71875 602.894531 199.414062 601.804688 199.140625 600.710938 C 198.867188 599.617188 198.617188 598.515625 198.394531 597.410156 C 198.175781 596.304688 197.980469 595.191406 197.816406 594.078125 C 197.648438 592.960938 197.507812 591.839844 197.398438 590.71875 C 197.285156 589.59375 197.203125 588.46875 197.144531 587.34375 C 197.089844 586.214844 197.058594 585.085938 197.058594 583.960938 L 197.058594 356.273438 L 174.53125 356.273438 C 173.34375 356.273438 172.164062 356.183594 170.992188 356 C 169.816406 355.816406 168.667969 355.539062 167.539062 355.171875 C 166.410156 354.808594 165.316406 354.355469 164.257812 353.816406 C 163.199219 353.277344 162.191406 352.65625 161.230469 351.960938 C 160.269531 351.261719 159.371094 350.492188 158.535156 349.652344 C 157.695312 348.8125 156.929688 347.910156 156.230469 346.949219 C 155.535156 345.988281 154.917969 344.976562 154.382812 343.917969 C 153.847656 342.859375 153.394531 341.765625 153.03125 340.636719 C 152.667969 339.507812 152.394531 338.355469 152.214844 337.183594 C 152.03125 336.007812 151.941406 334.828125 151.945312 333.640625 C 151.953125 332.453125 152.050781 331.277344 152.238281 330.105469 C 152.429688 328.933594 152.710938 327.785156 153.085938 326.65625 C 153.457031 325.527344 153.914062 324.4375 154.460938 323.382812 C 155.003906 322.328125 155.628906 321.324219 156.332031 320.367188 C 157.035156 319.410156 157.808594 318.515625 158.652344 317.679688 C 159.496094 316.847656 160.402344 316.085938 161.367188 315.394531 L 365.007812 169.972656 C 366.453125 168.941406 367.941406 167.964844 369.464844 167.042969 C 370.988281 166.125 372.542969 165.265625 374.132812 164.46875 C 375.722656 163.671875 377.34375 162.9375 378.988281 162.265625 C 380.636719 161.589844 382.308594 160.984375 384 160.441406 C 385.695312 159.898438 387.410156 159.421875 389.140625 159.011719 C 390.871094 158.601562 392.617188 158.257812 394.375 157.984375 C 396.132812 157.710938 397.898438 157.503906 399.671875 157.367188 C 401.445312 157.226562 403.21875 157.160156 405 157.160156 C 406.777344 157.160156 408.554688 157.226562 410.328125 157.367188 C 412.101562 157.503906 413.867188 157.710938 415.625 157.984375 C 417.382812 158.257812 419.128906 158.601562 420.859375 159.011719 C 422.589844 159.421875 424.304688 159.898438 425.996094 160.441406 C 427.691406 160.984375 429.363281 161.589844 431.007812 162.265625 C 432.65625 162.9375 434.277344 163.671875 435.867188 164.46875 C 437.457031 165.265625 439.011719 166.125 440.535156 167.042969 C 442.058594 167.964844 443.546875 168.941406 444.992188 169.972656 L 648.632812 315.394531 C 649.601562 316.078125 650.507812 316.835938 651.355469 317.667969 C 652.203125 318.496094 652.976562 319.386719 653.683594 320.339844 C 654.390625 321.292969 655.015625 322.296875 655.5625 323.347656 C 656.109375 324.402344 656.566406 325.492188 656.941406 326.617188 C 657.3125 327.742188 657.597656 328.890625 657.789062 330.058594 C 657.976562 331.230469 658.074219 332.410156 658.078125 333.59375 C 658.082031 334.78125 657.992188 335.957031 657.808594 337.128906 C 657.625 338.300781 657.351562 339.453125 656.984375 340.578125 Z M 656.984375 340.578125 " fill-opacity="1" fill-rule="nonzero"/></svg>