<svg xmlns="http://www.w3.org/2000/svg" xmlns:xlink="http://www.w3.org/1999/xlink" width="1080" zoomAndPan="magnify" viewBox="0 0 810 809.999993" height="1080" preserveAspectRatio="xMidYMid meet" version="1.0"><path fill="#292f33" d="M 734.0625 329.0625 L 480.9375 329.0625 L 480.9375 75.9375 C 480.9375 33.996094 446.941406 0 405 0 C 363.058594 0 329.0625 33.996094 329.0625 75.9375 L 329.0625 329.0625 L 75.9375 329.0625 C 33.996094 329.0625 0 363.058594 0 405 C 0 446.941406 33.996094 480.9375 75.9375 480.9375 L 329.0625 480.9375 L 329.0625 734.0625 C 329.0625 776.003906 363.058594 810 405 810 C 446.941406 810 480.9375 776.003906 480.9375 734.0625 L 480.9375 480.9375 L 734.0625 480.9375 C 776.003906 480.9375 810 446.941406 810 405 C 810 363.058594 776.003906 329.0625 734.0625 329.0625 Z M 734.0625 329.0625 " fill-opacity="1" fill-rule="nonzero"/></svg>